<svg width="62" height="50" viewBox="0 0 62 50" fill="none" xmlns="http://www.w3.org/2000/svg">
<path fill-rule="evenodd" clip-rule="evenodd" d="M51.346 38.5917C50.9573 38.5917 50.6419 38.2764 50.6419 37.8876L50.6421 14.5991C50.6421 12.3253 48.7923 10.4768 46.5184 10.4768H10.7324C8.45981 10.4768 6.61004 12.3252 6.61004 14.5991V24.4573H14.8558V19.4255C14.8558 19.0367 15.1712 18.7214 15.5599 18.7214H37.3668C37.7557 18.7214 38.0709 19.0367 38.0709 19.4255L38.0709 37.8876C38.0709 38.2764 37.7555 38.5917 37.3668 38.5917C36.9782 38.5917 36.6626 38.2764 36.6626 37.8876L36.6626 20.1297H16.2641V25.1615C16.2641 25.5502 15.9486 25.8656 15.5599 25.8656H5.90613C5.51715 25.8656 5.20166 25.5502 5.20166 25.1615V14.5991C5.20166 11.549 7.68209 9.06854 10.7322 9.06854H46.5184C49.5685 9.06854 52.0502 11.549 52.0502 14.5991L52.0504 37.8876C52.0504 38.2763 51.7348 38.5917 51.346 38.5917Z" fill="#4B6553"/>
<path fill-rule="evenodd" clip-rule="evenodd" d="M56.5479 44.5025C56.1579 44.5025 55.8435 44.1871 55.8435 43.7984L55.8438 40.8436C55.8438 39.6015 54.8338 38.5917 53.5917 38.5917H3.65916C2.41807 38.5917 1.40831 39.6015 1.40831 40.8436V43.7984C1.40831 44.1871 1.0929 44.5025 0.704115 44.5025C0.315486 44.5025 0 44.1871 0 43.7984V40.8436C0 38.8252 1.64185 37.1834 3.65896 37.1834H53.5918C55.6102 37.1834 57.2518 38.8252 57.2518 40.8436L57.2521 43.7984C57.2521 44.1871 56.9364 44.5025 56.5479 44.5025Z" fill="#4B6553"/>
<path fill-rule="evenodd" clip-rule="evenodd" d="M56.8106 14.0368C56.0149 14.0368 55.368 14.6835 55.368 15.4781L55.3682 25.5502C55.3682 26.3447 56.0147 26.9915 56.8105 26.9915L58.6494 26.9914C59.4441 26.9914 60.0905 26.3448 60.0905 25.5502L60.0908 15.4781C60.0908 14.6835 59.4438 14.0368 58.6492 14.0368L56.8106 14.0368ZM58.6494 28.3998H56.8106C55.2387 28.3998 53.9597 27.1211 53.9597 25.5502L53.9599 15.4781C53.9599 13.9072 55.2385 12.6284 56.8105 12.6284H58.6494C60.2214 12.6284 61.4988 13.9072 61.4988 15.4781L61.4991 25.5502C61.4991 27.1211 60.2213 28.3998 58.6494 28.3998Z" fill="#4B6553"/>
<path fill-rule="evenodd" clip-rule="evenodd" d="M54.664 19.2922H51.346C50.9573 19.2922 50.6419 18.9769 50.6419 18.5881C50.6421 18.1981 50.9572 17.8839 51.346 17.8839H54.664C55.0538 17.8839 55.368 18.1981 55.368 18.5881C55.3682 18.9769 55.0538 19.2923 54.664 19.2922ZM54.664 23.1456H51.346C50.9573 23.1456 50.6419 22.8301 50.6419 22.4414C50.6421 22.0527 50.9572 21.7373 51.346 21.7373H54.664C55.0538 21.7373 55.368 22.0527 55.368 22.4414C55.3682 22.8301 55.0538 23.1456 54.664 23.1456Z" fill="#4B6553"/>
<path fill-rule="evenodd" clip-rule="evenodd" d="M18.2421 10.4768C17.8534 10.4768 17.5379 10.1615 17.5379 9.77267V4.67118H13.3413V9.77267C13.3413 10.1615 13.0257 10.4768 12.637 10.4768C12.2482 10.4768 11.9328 10.1615 11.9328 9.77267L11.933 3.96703C11.933 3.57828 12.2482 3.26291 12.637 3.26291L18.2421 3.26288C18.631 3.26288 18.9462 3.57832 18.9462 3.96707V9.77267C18.9462 10.1615 18.6308 10.4768 18.2421 10.4768Z" fill="#4B6553"/>
<path fill-rule="evenodd" clip-rule="evenodd" d="M1.40835 48.5917H55.8438V44.5025H1.40835V48.5917ZM56.548 50H0.704274C0.315606 50 0.00011869 49.6846 0.00011869 49.2958L0 43.7984C0 43.4096 0.315487 43.0941 0.704234 43.0941H56.5481C56.9367 43.0941 57.2519 43.4095 57.2519 43.7983L57.2522 49.2958C57.2522 49.6846 56.9365 50 56.548 50Z" fill="#4B6553"/>
<path fill-rule="evenodd" clip-rule="evenodd" d="M12.8132 32.8509H8.65291C8.26424 32.8509 7.94868 32.5355 7.94868 32.1468L7.94875 25.1614C7.94875 24.7727 8.26408 24.4573 8.65279 24.4573C9.04182 24.4573 9.35699 24.7727 9.35699 25.1614L9.35706 31.4426H12.109V25.1614C12.109 24.7727 12.4242 24.4573 12.813 24.4573C13.2019 24.4573 13.5171 24.7727 13.5171 25.1614L13.5173 32.1468C13.5173 32.5355 13.2017 32.8509 12.8132 32.8509Z" fill="#4B6553"/>
<path fill-rule="evenodd" clip-rule="evenodd" d="M10.7324 38.5917C10.3437 38.5917 10.0281 38.2764 10.0281 37.8876L10.0282 32.1468C10.0282 31.7581 10.3435 31.4426 10.7323 31.4426C11.121 31.4426 11.4364 31.7581 11.4364 32.1468L11.4365 37.8876C11.4365 38.2764 11.121 38.5917 10.7324 38.5917Z" fill="#4B6553"/>
<path fill-rule="evenodd" clip-rule="evenodd" d="M44.3559 14.7996C43.026 14.7996 41.9426 15.8815 41.9426 17.2128C41.9428 18.5441 43.0257 19.626 44.3558 19.626C45.6872 19.626 46.7703 18.5441 46.7703 17.2128C46.7704 15.8815 45.6871 14.7996 44.3559 14.7996ZM44.3559 21.0343C42.2484 21.0343 40.5343 19.3204 40.5343 17.2128C40.5345 15.1052 42.2482 13.3913 44.3558 13.3913C46.4634 13.3913 48.1786 15.1052 48.1786 17.2128C48.1787 19.3203 46.4634 21.0343 44.3559 21.0343Z" fill="#4B6553"/>
<path fill-rule="evenodd" clip-rule="evenodd" d="M46.5894 28.5147H42.1224C41.7337 28.5147 41.4181 28.1993 41.4181 27.8106C41.4182 27.4219 41.7335 27.1064 42.1223 27.1064H46.5894C46.978 27.1064 47.2935 27.4219 47.2935 27.8106C47.2935 28.1993 46.978 28.5147 46.5894 28.5147Z" fill="#4B6553"/>
<path fill-rule="evenodd" clip-rule="evenodd" d="M46.5894 25.1431H42.1224C41.7337 25.1431 41.4181 24.8277 41.4181 24.439C41.4182 24.0502 41.7335 23.7348 42.1223 23.7348H46.5894C46.978 23.7348 47.2935 24.0502 47.2935 24.439C47.2935 24.8277 46.978 25.1431 46.5894 25.1431Z" fill="#4B6553"/>
<path fill-rule="evenodd" clip-rule="evenodd" d="M38.3009 10.4755C37.9122 10.4755 37.5966 10.1614 37.5966 9.7726L37.5967 4.52929C37.5967 4.14058 37.9119 3.82518 38.3007 3.82518C38.6896 3.82514 39.0049 4.14058 39.0049 4.52933L39.005 9.7726C39.005 10.1614 38.6895 10.4756 38.3009 10.4755Z" fill="#4B6553"/>
<path fill-rule="evenodd" clip-rule="evenodd" d="M42.544 10.4755C42.1554 10.4755 41.8399 10.1614 41.8399 9.7726L41.8402 4.52929C41.8402 4.14058 42.1553 3.82518 42.544 3.82518C42.9341 3.82514 43.2482 4.14058 43.2482 4.52933L43.2485 9.7726C43.2485 10.1614 42.934 10.4756 42.544 10.4755Z" fill="#4B6553"/>
<path fill-rule="evenodd" clip-rule="evenodd" d="M36.516 3.82516H44.3289V1.40831H36.516V3.82516ZM45.033 5.23347H35.8119C35.4232 5.23347 35.1077 4.9181 35.1077 4.52935L35.1077 0.704154C35.1077 0.315407 35.423 3.94837e-05 35.8118 3.94837e-05L45.033 0C45.422 0 45.7372 0.315447 45.7372 0.704194L45.7372 4.52931C45.7372 4.9181 45.4218 5.23351 45.033 5.23347Z" fill="#4B6553"/>
</svg>
