<svg width="50" height="50" viewBox="0 0 50 50" fill="none" xmlns="http://www.w3.org/2000/svg">
<path d="M25.0003 49.1667V9.16696C25.0003 9.00385 24.9524 8.84433 24.8626 8.70816C24.7729 8.57199 24.6451 8.46517 24.4952 8.40092C24.44 8.37738 18.9413 5.96917 16.5994 0.505146C16.5171 0.312997 16.3656 0.158808 16.1749 0.0731584C15.9842 -0.0124909 15.7683 -0.0233436 15.57 0.0427529L5.57007 3.37606C5.36295 3.44509 5.19119 3.59264 5.09173 3.78699C4.99227 3.98134 4.97304 4.20695 5.0382 4.41533C5.68423 6.73424 5.98737 9.13523 5.93798 11.5419C5.80735 16.639 3.93946 20.3699 0.385954 22.631C0.244731 22.7209 0.133844 22.8512 0.0677381 23.005C0.00163183 23.1588 -0.0166292 23.3289 0.0153334 23.4932C0.303872 24.976 0.644702 26.449 0.974386 27.8737C1.75948 31.2641 2.50051 34.4669 2.50051 37.5001C2.50051 42.1251 1.97135 45.8491 0.88272 48.8854C0.837619 49.0112 0.823432 49.146 0.841353 49.2784C0.859274 49.4109 0.90878 49.537 0.985693 49.6463C1.06261 49.7556 1.16467 49.8448 1.28328 49.9063C1.40189 49.9679 1.53356 50 1.66719 50H24.1669C24.388 50 24.5999 49.9122 24.7562 49.7559C24.9125 49.5996 25.0003 49.3877 25.0003 49.1667ZM23.3336 37.4987H21.667C21.446 37.4987 21.234 37.5865 21.0777 37.7428C20.9214 37.8991 20.8337 38.111 20.8337 38.3321C20.8337 38.5531 20.9214 38.765 21.0777 38.9213C21.234 39.0776 21.446 39.1654 21.667 39.1654H23.3336V48.3333H15.0004V46.6667C15.0004 46.4457 14.9126 46.2337 14.7563 46.0774C14.6 45.9212 14.3881 45.8334 14.1671 45.8334C13.946 45.8334 13.7341 45.9212 13.5778 46.0774C13.4215 46.2337 13.3337 46.4457 13.3337 46.6667V48.3333H2.81916C3.72519 45.3362 4.16716 41.7769 4.16716 37.5001C4.16716 34.2766 3.4053 30.9837 2.59864 27.4976C2.31291 26.2626 2.01865 24.9907 1.7599 23.7176C5.4484 21.1429 7.4665 16.9615 7.60463 11.5841C7.65044 9.26902 7.39483 6.9578 6.84422 4.70866L15.3885 1.86055C17.6764 6.51823 21.8773 8.95863 23.3336 9.69331V37.4987Z" fill="#4B6553"/>
<path d="M49.629 7.6403C47.8893 6.43088 46.2587 5.07154 44.756 3.57783C42.012 0.833685 39.2432 0.833685 38.3335 0.833685C37.4237 0.833685 34.655 0.833684 31.9109 3.57773C30.4077 5.07087 28.7772 6.43017 27.038 7.6402C26.9077 7.72704 26.8046 7.84882 26.7403 7.99158C26.6761 8.13434 26.6533 8.2923 26.6747 8.44738L30.008 32.6139C30.0355 32.8133 30.1342 32.996 30.286 33.1283C30.4377 33.2606 30.6322 33.3335 30.8335 33.3335H45.8334C46.0347 33.3335 46.2292 33.2606 46.3809 33.1283C46.5326 32.9961 46.6314 32.8134 46.6589 32.614L49.9922 8.44748C50.0136 8.29241 49.9908 8.13444 49.9266 7.99168C49.8624 7.84892 49.7592 7.72715 49.629 7.6403ZM45.1071 31.6668H31.5598L28.3961 8.72623C30.0641 7.53028 31.6337 6.20272 33.0899 4.75626C35.3454 2.50034 37.5944 2.50034 38.3335 2.50034C39.0725 2.50034 41.3215 2.50034 43.5775 4.75626C45.0335 6.2027 46.603 7.53026 48.2709 8.72623L45.1071 31.6668Z" fill="#4B6553"/>
<path d="M14.1671 7.5003C14.3881 7.5003 14.6 7.41251 14.7563 7.25623C14.9126 7.09995 15.0004 6.88799 15.0004 6.66698V5.00032C15.0004 4.77931 14.9126 4.56735 14.7563 4.41107C14.6 4.25479 14.3881 4.16699 14.1671 4.16699C13.946 4.16699 13.7341 4.25479 13.5778 4.41107C13.4215 4.56735 13.3337 4.77931 13.3337 5.00032V6.66698C13.3337 6.88799 13.4215 7.09995 13.5778 7.25623C13.7341 7.41251 13.946 7.5003 14.1671 7.5003Z" fill="#4B6553"/>
<path d="M38.3335 7.5003C38.5545 7.5003 38.7664 7.41251 38.9227 7.25623C39.079 7.09995 39.1668 6.88799 39.1668 6.66698V5.00032C39.1668 4.77931 39.079 4.56735 38.9227 4.41107C38.7664 4.25479 38.5545 4.16699 38.3335 4.16699C38.1124 4.16699 37.9005 4.25479 37.7442 4.41107C37.5879 4.56735 37.5001 4.77931 37.5001 5.00032V6.66698C37.5001 6.88799 37.5879 7.09995 37.7442 7.25623C37.9005 7.41251 38.1124 7.5003 38.3335 7.5003Z" fill="#4B6553"/>
<path d="M38.3335 11.6669C38.1124 11.6669 37.9005 11.7547 37.7442 11.911C37.5879 12.0673 37.5001 12.2793 37.5001 12.5003V14.1669C37.5001 14.3879 37.5879 14.5999 37.7442 14.7562C37.9005 14.9125 38.1124 15.0003 38.3335 15.0003C38.5545 15.0003 38.7664 14.9125 38.9227 14.7562C39.079 14.5999 39.1668 14.3879 39.1668 14.1669V12.5003C39.1668 12.2793 39.079 12.0673 38.9227 11.911C38.7664 11.7547 38.5545 11.6669 38.3335 11.6669Z" fill="#4B6553"/>
<path d="M38.3335 16.6669C38.1124 16.6669 37.9005 16.7547 37.7442 16.911C37.5879 17.0673 37.5001 17.2792 37.5001 17.5002V19.1669C37.5001 19.3879 37.5879 19.5999 37.7442 19.7561C37.9005 19.9124 38.1124 20.0002 38.3335 20.0002C38.5545 20.0002 38.7664 19.9124 38.9227 19.7561C39.079 19.5999 39.1668 19.3879 39.1668 19.1669V17.5002C39.1668 17.2792 39.079 17.0673 38.9227 16.911C38.7664 16.7547 38.5545 16.6669 38.3335 16.6669Z" fill="#4B6553"/>
<path d="M38.3335 21.6669C38.1124 21.6669 37.9005 21.7547 37.7442 21.9109C37.5879 22.0672 37.5001 22.2792 37.5001 22.5002V24.1669C37.5001 24.3879 37.5879 24.5998 37.7442 24.7561C37.9005 24.9124 38.1124 25.0002 38.3335 25.0002C38.5545 25.0002 38.7664 24.9124 38.9227 24.7561C39.079 24.5998 39.1668 24.3879 39.1668 24.1669V22.5002C39.1668 22.2792 39.079 22.0672 38.9227 21.9109C38.7664 21.7547 38.5545 21.6669 38.3335 21.6669Z" fill="#4B6553"/>
<path d="M38.3335 26.6668C38.1124 26.6668 37.9005 26.7546 37.7442 26.9109C37.5879 27.0672 37.5001 27.2791 37.5001 27.5002V29.1668C37.5001 29.3878 37.5879 29.5998 37.7442 29.7561C37.9005 29.9123 38.1124 30.0001 38.3335 30.0001C38.5545 30.0001 38.7664 29.9123 38.9227 29.7561C39.079 29.5998 39.1668 29.3878 39.1668 29.1668V27.5002C39.1668 27.2791 39.079 27.0672 38.9227 26.9109C38.7664 26.7546 38.5545 26.6668 38.3335 26.6668Z" fill="#4B6553"/>
<path d="M6.66714 25.0002C6.66714 24.7792 6.57934 24.5672 6.42306 24.4109C6.26678 24.2546 6.05482 24.1669 5.83381 24.1669H4.16716C3.94615 24.1669 3.73419 24.2546 3.57791 24.4109C3.42164 24.5672 3.33384 24.7792 3.33384 25.0002C3.33384 25.2212 3.42164 25.4332 3.57791 25.5894C3.73419 25.7457 3.94615 25.8335 4.16716 25.8335H5.83381C6.05482 25.8335 6.26678 25.7457 6.42306 25.5894C6.57934 25.4332 6.66714 25.2212 6.66714 25.0002Z" fill="#4B6553"/>
<path d="M37.5001 42.5001H35.8335C35.6125 42.5001 35.4005 42.5878 35.2442 42.7441C35.088 42.9004 35.0002 43.1124 35.0002 43.3334C35.0002 43.5544 35.088 43.7664 35.2442 43.9226C35.4005 44.0789 35.6125 44.1667 35.8335 44.1667H37.5001C37.7211 44.1667 37.9331 44.0789 38.0894 43.9226C38.2457 43.7664 38.3335 43.5544 38.3335 43.3334C38.3335 43.1124 38.2457 42.9004 38.0894 42.7441C37.9331 42.5878 37.7211 42.5001 37.5001 42.5001Z" fill="#4B6553"/>
<path d="M40.8334 44.1667H42.5001C42.7211 44.1667 42.9331 44.0789 43.0893 43.9226C43.2456 43.7664 43.3334 43.5544 43.3334 43.3334C43.3334 43.1124 43.2456 42.9004 43.0893 42.7441C42.9331 42.5878 42.7211 42.5001 42.5001 42.5001H40.8334C40.6124 42.5001 40.4005 42.5878 40.2442 42.7441C40.0879 42.9004 40.0001 43.1124 40.0001 43.3334C40.0001 43.5544 40.0879 43.7664 40.2442 43.9226C40.4005 44.0789 40.6124 44.1667 40.8334 44.1667Z" fill="#4B6553"/>
<path d="M50 38.3334C50 38.1124 49.9122 37.9004 49.7559 37.7442C49.5996 37.5879 49.3877 37.5001 49.1667 37.5001H29.1669C28.9459 37.5001 28.7339 37.5879 28.5776 37.7442C28.4214 37.9004 28.3336 38.1124 28.3336 38.3334V48.3333C28.3336 48.5544 28.4214 48.7663 28.5776 48.9226C28.7339 49.0789 28.9459 49.1667 29.1669 49.1667H49.1667C49.3877 49.1667 49.5996 49.0789 49.7559 48.9226C49.9122 48.7663 50 48.5544 50 48.3333V38.3334ZM48.3334 42.5001H45.8334C45.6124 42.5001 45.4004 42.5878 45.2441 42.7441C45.0878 42.9004 45.0001 43.1124 45.0001 43.3334C45.0001 43.5544 45.0878 43.7664 45.2441 43.9226C45.4004 44.0789 45.6124 44.1667 45.8334 44.1667H48.3334V47.5H40.0001V45.8334C40.0001 45.6124 39.9123 45.4004 39.756 45.2441C39.5998 45.0878 39.3878 45 39.1668 45C38.9458 45 38.7338 45.0878 38.5775 45.2441C38.4213 45.4004 38.3335 45.6124 38.3335 45.8334V47.5H30.0002V44.1667H32.5002C32.7212 44.1667 32.9332 44.0789 33.0894 43.9226C33.2457 43.7664 33.3335 43.5544 33.3335 43.3334C33.3335 43.1124 33.2457 42.9004 33.0894 42.7441C32.9332 42.5878 32.7212 42.5001 32.5002 42.5001H30.0002V39.1667H38.3335V40.0001C38.3335 40.2211 38.4213 40.433 38.5775 40.5893C38.7338 40.7456 38.9458 40.8334 39.1668 40.8334C39.3878 40.8334 39.5998 40.7456 39.756 40.5893C39.9123 40.433 40.0001 40.2211 40.0001 40.0001V39.1667H48.3334V42.5001Z" fill="#4B6553"/>
<path d="M31.6669 8.33363H30.8335C30.6125 8.33363 30.4006 8.42143 30.2443 8.57771C30.088 8.73399 30.0002 8.94595 30.0002 9.16696C30.0002 9.38797 30.088 9.59993 30.2443 9.75621C30.4006 9.91249 30.6125 10.0003 30.8335 10.0003H31.6669C31.8879 10.0003 32.0998 9.91249 32.2561 9.75621C32.4124 9.59993 32.5002 9.38797 32.5002 9.16696C32.5002 8.94595 32.4124 8.73399 32.2561 8.57771C32.0998 8.42143 31.8879 8.33363 31.6669 8.33363Z" fill="#4B6553"/>
<path d="M36.6668 8.33363H35.0002C34.7792 8.33363 34.5672 8.42143 34.4109 8.57771C34.2546 8.73399 34.1668 8.94595 34.1668 9.16696C34.1668 9.38797 34.2546 9.59993 34.4109 9.75621C34.5672 9.91249 34.7792 10.0003 35.0002 10.0003H36.6668C36.8878 10.0003 37.0998 9.91249 37.2561 9.75621C37.4123 9.59993 37.5001 9.38797 37.5001 9.16696C37.5001 8.94595 37.4123 8.73399 37.2561 8.57771C37.0998 8.42143 36.8878 8.33363 36.6668 8.33363Z" fill="#4B6553"/>
<path d="M41.6668 8.33363H40.0001C39.7791 8.33363 39.5671 8.42143 39.4109 8.57771C39.2546 8.73399 39.1668 8.94595 39.1668 9.16696C39.1668 9.38797 39.2546 9.59993 39.4109 9.75621C39.5671 9.91249 39.7791 10.0003 40.0001 10.0003H41.6668C41.8878 10.0003 42.0997 9.91249 42.256 9.75621C42.4123 9.59993 42.5001 9.38797 42.5001 9.16696C42.5001 8.94595 42.4123 8.73399 42.256 8.57771C42.0997 8.42143 41.8878 8.33363 41.6668 8.33363Z" fill="#4B6553"/>
<path d="M45.0001 10.0003H45.8334C46.0544 10.0003 46.2663 9.91249 46.4226 9.75621C46.5789 9.59993 46.6667 9.38797 46.6667 9.16696C46.6667 8.94595 46.5789 8.73399 46.4226 8.57771C46.2663 8.42143 46.0544 8.33363 45.8334 8.33363H45.0001C44.779 8.33363 44.5671 8.42143 44.4108 8.57771C44.2545 8.73399 44.1667 8.94595 44.1667 9.16696C44.1667 9.38797 44.2545 9.59993 44.4108 9.75621C44.5671 9.91249 44.779 10.0003 45.0001 10.0003Z" fill="#4B6553"/>
<path d="M8.33379 37.5008H6.66714C6.44613 37.5008 6.23417 37.5886 6.07789 37.7449C5.92161 37.9012 5.83381 38.1131 5.83381 38.3341C5.83381 38.5552 5.92161 38.7671 6.07789 38.9234C6.23417 39.0797 6.44613 39.1675 6.66714 39.1675H8.33379C8.5548 39.1675 8.76676 39.0797 8.92303 38.9234C9.07931 38.7671 9.16711 38.5552 9.16711 38.3341C9.16711 38.1131 9.07931 37.9012 8.92303 37.7449C8.76676 37.5886 8.5548 37.5008 8.33379 37.5008Z" fill="#4B6553"/>
<path d="M14.1671 38.3334C14.1671 38.1124 14.0793 37.9004 13.923 37.7442C13.7667 37.5879 13.5547 37.5001 13.3337 37.5001H11.6671C11.4461 37.5001 11.2341 37.5879 11.0778 37.7442C10.9216 37.9004 10.8338 38.1124 10.8338 38.3334C10.8338 38.5544 10.9216 38.7664 11.0778 38.9227C11.2341 39.0789 11.4461 39.1667 11.6671 39.1667H13.3337C13.5547 39.1667 13.7667 39.0789 13.923 38.9227C14.0793 38.7664 14.1671 38.5544 14.1671 38.3334Z" fill="#4B6553"/>
<path d="M18.3337 37.4994H16.667C16.446 37.4994 16.2341 37.5872 16.0778 37.7434C15.9215 37.8997 15.8337 38.1117 15.8337 38.3327C15.8337 38.5537 15.9215 38.7657 16.0778 38.9219C16.2341 39.0782 16.446 39.166 16.667 39.166H18.3337C18.5547 39.166 18.7666 39.0782 18.9229 38.9219C19.0792 38.7657 19.167 38.5537 19.167 38.3327C19.167 38.1117 19.0792 37.8997 18.9229 37.7434C18.7666 37.5872 18.5547 37.4994 18.3337 37.4994Z" fill="#4B6553"/>
<path d="M9.16711 25.8335H10.8338C11.0548 25.8335 11.2667 25.7457 11.423 25.5894C11.5793 25.4332 11.6671 25.2212 11.6671 25.0002C11.6671 24.7792 11.5793 24.5672 11.423 24.4109C11.2667 24.2546 11.0548 24.1669 10.8338 24.1669H9.16711C8.9461 24.1669 8.73414 24.2546 8.57786 24.4109C8.42158 24.5672 8.33379 24.7792 8.33379 25.0002C8.33379 25.2212 8.42158 25.4332 8.57786 25.5894C8.73414 25.7457 8.9461 25.8335 9.16711 25.8335Z" fill="#4B6553"/>
<path d="M14.1671 25.8335H15.8337C16.0547 25.8335 16.2667 25.7457 16.423 25.5894C16.5792 25.4332 16.667 25.2212 16.667 25.0002C16.667 24.7792 16.5792 24.5672 16.423 24.4109C16.2667 24.2546 16.0547 24.1669 15.8337 24.1669H14.1671C13.946 24.1669 13.7341 24.2546 13.5778 24.4109C13.4215 24.5672 13.3337 24.7792 13.3337 25.0002C13.3337 25.2212 13.4215 25.4332 13.5778 25.5894C13.7341 25.7457 13.946 25.8335 14.1671 25.8335Z" fill="#4B6553"/>
<path d="M19.167 25.8335H20.8337C21.0547 25.8335 21.2666 25.7457 21.4229 25.5894C21.5792 25.4332 21.667 25.2212 21.667 25.0002C21.667 24.7792 21.5792 24.5672 21.4229 24.4109C21.2666 24.2546 21.0547 24.1669 20.8337 24.1669H19.167C18.946 24.1669 18.734 24.2546 18.5778 24.4109C18.4215 24.5672 18.3337 24.7792 18.3337 25.0002C18.3337 25.2212 18.4215 25.4332 18.5778 25.5894C18.734 25.7457 18.946 25.8335 19.167 25.8335Z" fill="#4B6553"/>
<path d="M14.1671 12.5003C14.3881 12.5003 14.6 12.4125 14.7563 12.2562C14.9126 12.0999 15.0004 11.888 15.0004 11.6669V10.0003C15.0004 9.77927 14.9126 9.56731 14.7563 9.41104C14.6 9.25476 14.3881 9.16696 14.1671 9.16696C13.946 9.16696 13.7341 9.25476 13.5778 9.41104C13.4215 9.56731 13.3337 9.77927 13.3337 10.0003V11.6669C13.3337 11.888 13.4215 12.0999 13.5778 12.2562C13.7341 12.4125 13.946 12.5003 14.1671 12.5003Z" fill="#4B6553"/>
<path d="M14.1671 17.5002C14.3881 17.5002 14.6 17.4124 14.7563 17.2562C14.9126 17.0999 15.0004 16.8879 15.0004 16.6669V15.0003C15.0004 14.7792 14.9126 14.5673 14.7563 14.411C14.6 14.2547 14.3881 14.1669 14.1671 14.1669C13.946 14.1669 13.7341 14.2547 13.5778 14.411C13.4215 14.5673 13.3337 14.7792 13.3337 15.0003V16.6669C13.3337 16.8879 13.4215 17.0999 13.5778 17.2562C13.7341 17.4124 13.946 17.5002 14.1671 17.5002Z" fill="#4B6553"/>
<path d="M14.1671 22.5002C14.3881 22.5002 14.6 22.4124 14.7563 22.2561C14.9126 22.0998 15.0004 21.8879 15.0004 21.6669V20.0002C15.0004 19.7792 14.9126 19.5672 14.7563 19.411C14.6 19.2547 14.3881 19.1669 14.1671 19.1669C13.946 19.1669 13.7341 19.2547 13.5778 19.411C13.4215 19.5672 13.3337 19.7792 13.3337 20.0002V21.6669C13.3337 21.8879 13.4215 22.0998 13.5778 22.2561C13.7341 22.4124 13.946 22.5002 14.1671 22.5002Z" fill="#4B6553"/>
<path d="M14.1671 27.5002C13.946 27.5002 13.7341 27.588 13.5778 27.7442C13.4215 27.9005 13.3337 28.1125 13.3337 28.3335V30.0001C13.3337 30.2212 13.4215 30.4331 13.5778 30.5894C13.7341 30.7457 13.946 30.8335 14.1671 30.8335C14.3881 30.8335 14.6 30.7457 14.7563 30.5894C14.9126 30.4331 15.0004 30.2212 15.0004 30.0001V28.3335C15.0004 28.1125 14.9126 27.9005 14.7563 27.7442C14.6 27.588 14.3881 27.5002 14.1671 27.5002Z" fill="#4B6553"/>
<path d="M14.1671 32.5001C13.946 32.5001 13.7341 32.5879 13.5778 32.7442C13.4215 32.9005 13.3337 33.1124 13.3337 33.3335V35.0001C13.3337 35.2211 13.4215 35.4331 13.5778 35.5894C13.7341 35.7456 13.946 35.8334 14.1671 35.8334C14.3881 35.8334 14.6 35.7456 14.7563 35.5894C14.9126 35.4331 15.0004 35.2211 15.0004 35.0001V33.3335C15.0004 33.1124 14.9126 32.9005 14.7563 32.7442C14.6 32.5879 14.3881 32.5001 14.1671 32.5001Z" fill="#4B6553"/>
<path d="M14.1671 40.8334C13.946 40.8334 13.7341 40.9212 13.5778 41.0775C13.4215 41.2338 13.3337 41.4457 13.3337 41.6667V43.3334C13.3337 43.5544 13.4215 43.7664 13.5778 43.9226C13.7341 44.0789 13.946 44.1667 14.1671 44.1667C14.3881 44.1667 14.6 44.0789 14.7563 43.9226C14.9126 43.7664 15.0004 43.5544 15.0004 43.3334V41.6667C15.0004 41.4457 14.9126 41.2338 14.7563 41.0775C14.6 40.9212 14.3881 40.8334 14.1671 40.8334Z" fill="#4B6553"/>
</svg>
