<svg width="47" height="50" viewBox="0 0 47 50" fill="none" xmlns="http://www.w3.org/2000/svg">
<path d="M12.9667 14.8H11.1V16.6667H12.9667V14.8Z" fill="#4B6553"/>
<path d="M11.1333 12.9667H9.26667V14.8333H11.1333V12.9667Z" fill="#4B6553"/>
<path d="M9.26667 11.1H7.4V12.9667H9.26667V11.1Z" fill="#4B6553"/>
<path d="M11.1333 9.26667H9.26667V11.1333H11.1333V9.26667Z" fill="#4B6553"/>
<path d="M12.9667 7.4H11.1V9.26667H12.9667V7.4Z" fill="#4B6553"/>
<path d="M14.8333 9.26667H12.9667V11.1333H14.8333V9.26667Z" fill="#4B6553"/>
<path d="M16.6667 11.1H14.8V12.9667H16.6667V11.1Z" fill="#4B6553"/>
<path d="M18.5333 12.9667H16.6667V14.8333H18.5333V12.9667Z" fill="#4B6553"/>
<path d="M20.4 14.8H18.5333V16.6667H20.4V14.8Z" fill="#4B6553"/>
<path d="M18.5333 16.6667H16.6667V18.5333H18.5333V16.6667Z" fill="#4B6553"/>
<path d="M16.6667 18.5333H14.8V20.4H16.6667V18.5333Z" fill="#4B6553"/>
<path d="M14.8333 20.3667H12.9667V22.2333H14.8333V20.3667Z" fill="#4B6553"/>
<path d="M12.9667 22.2333H11.1V24.1H12.9667V22.2333Z" fill="#4B6553"/>
<path d="M11.1333 20.3667H9.26667V22.2333H11.1333V20.3667Z" fill="#4B6553"/>
<path d="M9.26667 18.5333H7.4V20.4H9.26667V18.5333Z" fill="#4B6553"/>
<path d="M7.43333 16.6667H5.56667V18.5333H7.43333V16.6667Z" fill="#4B6553"/>
<path d="M5.56667 14.8H3.7V16.6667H5.56667V14.8Z" fill="#4B6553"/>
<path d="M3.73333 12.9667H1.86667V14.8333H3.73333V12.9667Z" fill="#4B6553"/>
<path d="M1.86667 11.1H0V12.9667H1.86667V11.1Z" fill="#4B6553"/>
<path d="M3.73333 9.26667H1.86667V11.1333H3.73333V9.26667Z" fill="#4B6553"/>
<path d="M5.56667 7.4H3.7V9.26667H5.56667V7.4Z" fill="#4B6553"/>
<path d="M7.43333 5.56667H5.56667V7.43333H7.43333V5.56667Z" fill="#4B6553"/>
<path d="M9.26667 3.7H7.4V5.56667H9.26667V3.7Z" fill="#4B6553"/>
<path d="M11.1333 1.86667H9.26667V3.73333H11.1333V1.86667Z" fill="#4B6553"/>
<path d="M14.8333 1.86667H12.9667V3.73333H14.8333V1.86667Z" fill="#4B6553"/>
<path d="M16.6667 3.7H14.8V5.56667H16.6667V3.7Z" fill="#4B6553"/>
<path d="M18.5333 5.56667H16.6667V7.43333H18.5333V5.56667Z" fill="#4B6553"/>
<path d="M20.4 7.4H18.5333V9.26667H20.4V7.4Z" fill="#4B6553"/>
<path d="M35.2 14.8H33.3333V16.6667H35.2V14.8Z" fill="#4B6553"/>
<path d="M37.0667 12.9667H35.2V14.8333H37.0667V12.9667Z" fill="#4B6553"/>
<path d="M38.9 11.1H37.0333V12.9667H38.9V11.1Z" fill="#4B6553"/>
<path d="M37.0667 9.26667H35.2V11.1333H37.0667V9.26667Z" fill="#4B6553"/>
<path d="M35.2 7.4H33.3333V9.26667H35.2V7.4Z" fill="#4B6553"/>
<path d="M33.3333 9.26667H31.4667V11.1333H33.3333V9.26667Z" fill="#4B6553"/>
<path d="M31.5 11.1H29.6333V12.9667H31.5V11.1Z" fill="#4B6553"/>
<path d="M29.6333 12.9667H27.7667V14.8333H29.6333V12.9667Z" fill="#4B6553"/>
<path d="M27.8 14.8H25.9333V16.6667H27.8V14.8Z" fill="#4B6553"/>
<path d="M29.6333 16.6667H27.7667V18.5333H29.6333V16.6667Z" fill="#4B6553"/>
<path d="M31.5 18.5333H29.6333V20.4H31.5V18.5333Z" fill="#4B6553"/>
<path d="M33.3333 20.3667H31.4667V22.2333H33.3333V20.3667Z" fill="#4B6553"/>
<path d="M37.0667 20.3667H35.2V22.2333H37.0667V20.3667Z" fill="#4B6553"/>
<path d="M38.9 18.5333H37.0333V20.4H38.9V18.5333Z" fill="#4B6553"/>
<path d="M40.7667 16.6667H38.9V18.5333H40.7667V16.6667Z" fill="#4B6553"/>
<path d="M42.6 14.8H40.7333V16.6667H42.6V14.8Z" fill="#4B6553"/>
<path d="M44.4667 12.9667H42.6V14.8333H44.4667V12.9667Z" fill="#4B6553"/>
<path d="M46.3 11.1H44.4333V12.9667H46.3V11.1Z" fill="#4B6553"/>
<path d="M44.4667 9.26667H42.6V11.1333H44.4667V9.26667Z" fill="#4B6553"/>
<path d="M42.6 7.4H40.7333V9.26667H42.6V7.4Z" fill="#4B6553"/>
<path d="M40.7667 5.56667H38.9V7.43333H40.7667V5.56667Z" fill="#4B6553"/>
<path d="M38.9 3.7H37.0333V5.56667H38.9V3.7Z" fill="#4B6553"/>
<path d="M37.0667 1.86667H35.2V3.73333H37.0667V1.86667Z" fill="#4B6553"/>
<path d="M33.3333 1.86667H31.4667V3.73333H33.3333V1.86667Z" fill="#4B6553"/>
<path d="M31.5 3.7H29.6333V5.56667H31.5V3.7Z" fill="#4B6553"/>
<path d="M29.6333 5.56667H27.7667V7.43333H29.6333V5.56667Z" fill="#4B6553"/>
<path d="M27.8 7.4H25.9333V9.26667H27.8V7.4Z" fill="#4B6553"/>
<path d="M22.2333 9.26667H20.3667V11.1333H22.2333V9.26667Z" fill="#4B6553"/>
<path d="M24.1 11.1H22.2333V12.9667H24.1V11.1Z" fill="#4B6553"/>
<path d="M25.9333 12.9667H24.0667V14.8333H25.9333V12.9667Z" fill="#4B6553"/>
<path d="M22.2333 16.6667H20.3667V18.5333H22.2333V16.6667Z" fill="#4B6553"/>
<path d="M24.1 18.5333H22.2333V20.4H24.1V18.5333Z" fill="#4B6553"/>
<path d="M35.2 22.2333H33.3333V24.1H35.2V22.2333Z" fill="#4B6553"/>
<path d="M25.9333 20.3667H24.0667V22.2333H25.9333V20.3667Z" fill="#4B6553"/>
<path d="M27.8 22.2333H25.9333V24.1H27.8V22.2333Z" fill="#4B6553"/>
<path d="M12.9667 0H11.1V1.86667H12.9667V0Z" fill="#4B6553"/>
<path d="M35.2 0H33.3333V1.86667H35.2V0Z" fill="#4B6553"/>
<path d="M25.9333 5.56667H24.0667V7.43333H25.9333V5.56667Z" fill="#4B6553"/>
<path d="M24.1 3.7H22.2333V5.56667H24.1V3.7Z" fill="#4B6553"/>
<path d="M22.2333 1.86667H20.3667V3.73333H22.2333V1.86667Z" fill="#4B6553"/>
<path d="M20.4 0H18.5333V1.86667H20.4V0Z" fill="#4B6553"/>
<path d="M35.2 40.7333H33.3333V42.6H35.2V40.7333Z" fill="#4B6553"/>
<path d="M37.0667 38.9H35.2V40.7667H37.0667V38.9Z" fill="#4B6553"/>
<path d="M38.9 37.0333H37.0333V38.9H38.9V37.0333Z" fill="#4B6553"/>
<path d="M37.0667 35.2H35.2V37.0667H37.0667V35.2Z" fill="#4B6553"/>
<path d="M35.2 33.3333H33.3333V35.2H35.2V33.3333Z" fill="#4B6553"/>
<path d="M33.3333 35.2H31.4667V37.0667H33.3333V35.2Z" fill="#4B6553"/>
<path d="M31.5 37.0333H29.6333V38.9H31.5V37.0333Z" fill="#4B6553"/>
<path d="M29.6333 38.9H27.7667V40.7667H29.6333V38.9Z" fill="#4B6553"/>
<path d="M27.8 40.7333H25.9333V42.6H27.8V40.7333Z" fill="#4B6553"/>
<path d="M29.6333 42.6H27.7667V44.4667H29.6333V42.6Z" fill="#4B6553"/>
<path d="M31.5 44.4333H29.6333V46.3H31.5V44.4333Z" fill="#4B6553"/>
<path d="M33.3333 46.3H31.4667V48.1667H33.3333V46.3Z" fill="#4B6553"/>
<path d="M35.2 48.1333H33.3333V50H35.2V48.1333Z" fill="#4B6553"/>
<path d="M37.0667 46.3H35.2V48.1667H37.0667V46.3Z" fill="#4B6553"/>
<path d="M38.9 44.4333H37.0333V46.3H38.9V44.4333Z" fill="#4B6553"/>
<path d="M40.7667 42.6H38.9V44.4667H40.7667V42.6Z" fill="#4B6553"/>
<path d="M42.6 40.7333H40.7333V42.6H42.6V40.7333Z" fill="#4B6553"/>
<path d="M44.4667 38.9H42.6V40.7667H44.4667V38.9Z" fill="#4B6553"/>
<path d="M46.3 37.0333H44.4333V38.9H46.3V37.0333Z" fill="#4B6553"/>
<path d="M44.4667 35.2H42.6V37.0667H44.4667V35.2Z" fill="#4B6553"/>
<path d="M42.6 33.3333H40.7333V35.2H42.6V33.3333Z" fill="#4B6553"/>
<path d="M40.7667 31.4667H38.9V33.3333H40.7667V31.4667Z" fill="#4B6553"/>
<path d="M38.9 29.6333H37.0333V31.5H38.9V29.6333Z" fill="#4B6553"/>
<path d="M37.0667 27.7667H35.2V29.6333H37.0667V27.7667Z" fill="#4B6553"/>
<path d="M33.3333 27.7667H31.4667V29.6333H33.3333V27.7667Z" fill="#4B6553"/>
<path d="M31.5 29.6333H29.6333V31.5H31.5V29.6333Z" fill="#4B6553"/>
<path d="M29.6333 31.4667H27.7667V33.3333H29.6333V31.4667Z" fill="#4B6553"/>
<path d="M27.8 33.3333H25.9333V35.2H27.8V33.3333Z" fill="#4B6553"/>
<path d="M12.9667 40.7333H11.1V42.6H12.9667V40.7333Z" fill="#4B6553"/>
<path d="M11.1333 38.9H9.26667V40.7667H11.1333V38.9Z" fill="#4B6553"/>
<path d="M9.26667 37.0333H7.4V38.9H9.26667V37.0333Z" fill="#4B6553"/>
<path d="M11.1333 35.2H9.26667V37.0667H11.1333V35.2Z" fill="#4B6553"/>
<path d="M12.9667 33.3333H11.1V35.2H12.9667V33.3333Z" fill="#4B6553"/>
<path d="M14.8333 35.2H12.9667V37.0667H14.8333V35.2Z" fill="#4B6553"/>
<path d="M16.6667 37.0333H14.8V38.9H16.6667V37.0333Z" fill="#4B6553"/>
<path d="M18.5333 38.9H16.6667V40.7667H18.5333V38.9Z" fill="#4B6553"/>
<path d="M20.4 40.7333H18.5333V42.6H20.4V40.7333Z" fill="#4B6553"/>
<path d="M18.5333 42.6H16.6667V44.4667H18.5333V42.6Z" fill="#4B6553"/>
<path d="M16.6667 44.4333H14.8V46.3H16.6667V44.4333Z" fill="#4B6553"/>
<path d="M14.8333 46.3H12.9667V48.1667H14.8333V46.3Z" fill="#4B6553"/>
<path d="M11.1333 46.3H9.26667V48.1667H11.1333V46.3Z" fill="#4B6553"/>
<path d="M9.26667 44.4333H7.4V46.3H9.26667V44.4333Z" fill="#4B6553"/>
<path d="M7.43333 42.6H5.56667V44.4667H7.43333V42.6Z" fill="#4B6553"/>
<path d="M5.56667 40.7333H3.7V42.6H5.56667V40.7333Z" fill="#4B6553"/>
<path d="M3.73333 38.9H1.86667V40.7667H3.73333V38.9Z" fill="#4B6553"/>
<path d="M1.86667 37.0333H0V38.9H1.86667V37.0333Z" fill="#4B6553"/>
<path d="M3.73333 35.2H1.86667V37.0667H3.73333V35.2Z" fill="#4B6553"/>
<path d="M5.56667 33.3333H3.7V35.2H5.56667V33.3333Z" fill="#4B6553"/>
<path d="M7.43333 31.4667H5.56667V33.3333H7.43333V31.4667Z" fill="#4B6553"/>
<path d="M9.26667 29.6333H7.4V31.5H9.26667V29.6333Z" fill="#4B6553"/>
<path d="M11.1333 27.7667H9.26667V29.6333H11.1333V27.7667Z" fill="#4B6553"/>
<path d="M14.8333 27.7667H12.9667V29.6333H14.8333V27.7667Z" fill="#4B6553"/>
<path d="M16.6667 29.6333H14.8V31.5H16.6667V29.6333Z" fill="#4B6553"/>
<path d="M18.5333 31.4667H16.6667V33.3333H18.5333V31.4667Z" fill="#4B6553"/>
<path d="M20.4 33.3333H18.5333V35.2H20.4V33.3333Z" fill="#4B6553"/>
<path d="M25.9333 35.2H24.0667V37.0667H25.9333V35.2Z" fill="#4B6553"/>
<path d="M24.1 37.0333H22.2333V38.9H24.1V37.0333Z" fill="#4B6553"/>
<path d="M22.2333 38.9H20.3667V40.7667H22.2333V38.9Z" fill="#4B6553"/>
<path d="M25.9333 42.6H24.0667V44.4667H25.9333V42.6Z" fill="#4B6553"/>
<path d="M24.1 44.4333H22.2333V46.3H24.1V44.4333Z" fill="#4B6553"/>
<path d="M12.9667 48.1333H11.1V50H12.9667V48.1333Z" fill="#4B6553"/>
<path d="M22.2333 46.3H20.3667V48.1667H22.2333V46.3Z" fill="#4B6553"/>
<path d="M20.4 48.1333H18.5333V50H20.4V48.1333Z" fill="#4B6553"/>
<path d="M35.2 25.9333H33.3333V27.8H35.2V25.9333Z" fill="#4B6553"/>
<path d="M12.9667 25.9333H11.1V27.8H12.9667V25.9333Z" fill="#4B6553"/>
<path d="M22.2333 31.4667H20.3667V33.3333H22.2333V31.4667Z" fill="#4B6553"/>
<path d="M24.1 29.6333H22.2333V31.5H24.1V29.6333Z" fill="#4B6553"/>
<path d="M25.9333 27.7667H24.0667V29.6333H25.9333V27.7667Z" fill="#4B6553"/>
<path d="M27.8 25.9333H25.9333V27.8H27.8V25.9333Z" fill="#4B6553"/>
</svg>
