<svg width="58" height="50" viewBox="0 0 58 50" fill="none" xmlns="http://www.w3.org/2000/svg">
<path d="M8.42525 24.0053C8.25086 24.0053 8.07647 23.9944 7.89118 23.9617C4.6432 23.5039 0.381587 20.0488 0.0219114 16.6591C-0.141578 15.1223 0.610472 13.5311 2.25626 11.918C3.59687 10.5992 9.97294 4.87704 12.0656 3.75441C13.2972 3.10046 14.7032 2.92607 16.0547 2.76258C17.0793 2.64269 18.1365 2.5119 19.0847 2.17402C19.2918 2.09772 19.5098 2.20672 19.5861 2.4138C19.6624 2.62089 19.5534 2.83887 19.3463 2.91517C18.3218 3.28574 17.2101 3.41653 16.1419 3.54733C14.8013 3.71081 13.537 3.8634 12.4362 4.45197C10.5397 5.4656 4.35982 10.9588 2.81212 12.4847C1.35162 13.9234 0.675867 15.3076 0.806659 16.5938C1.12274 19.6019 5.09007 22.7954 8.00018 23.2096C8.81762 23.3186 9.32989 23.1442 9.84215 22.6101L14.0929 18.1196C14.2455 17.9671 14.4852 17.9562 14.6487 18.1087C14.8013 18.2613 14.8122 18.5011 14.6596 18.6646L10.4089 23.1551C9.84215 23.7219 9.20999 24.0053 8.42525 24.0053Z" fill="#4B6553"/>
<path d="M48.4147 26.0652C48.3929 26.0652 48.382 26.0652 48.3711 26.0652C47.6735 26.0543 47.074 25.7709 46.5836 25.226C45.9296 24.4848 45.3411 23.7982 44.7525 23.1115C44.1094 22.3595 43.4664 21.6074 42.747 20.8009C42.6054 20.6374 42.6162 20.3976 42.7797 20.245C42.9432 20.1033 43.183 20.1142 43.3356 20.2777C44.0659 21.0842 44.7089 21.8363 45.352 22.5992C45.9296 23.2859 46.5182 23.9726 47.1721 24.7028C47.5209 25.0843 47.9133 25.2696 48.3929 25.2805C48.4038 25.2805 48.4147 25.2805 48.4256 25.2805C50.1476 25.2805 52.3384 23.0352 53.2757 22.0761C53.4828 21.8581 53.7008 21.651 53.9406 21.433C54.7907 20.6156 55.8589 19.6019 56.1749 18.7409C56.8507 16.9643 54.8343 14.6755 54.1913 14.0215C52.5782 12.3539 46.4419 6.62092 44.5672 5.56369C42.6053 4.46286 41.4064 4.34297 39.1612 4.34297C38.9432 4.34297 38.7688 4.16858 38.7688 3.9506C38.7688 3.73261 38.9432 3.55823 39.1612 3.55823C41.4936 3.55823 42.8342 3.68902 44.9487 4.87704C47.0087 6.04326 53.3411 12.0161 54.7471 13.4657C55.6627 14.4139 57.7117 16.8662 56.8943 19.0025C56.5237 20.027 55.3793 21.1169 54.4747 21.9889C54.2458 22.2069 54.0387 22.414 53.8534 22.5883C52.7417 23.7437 50.4637 26.0652 48.4147 26.0652Z" fill="#4B6553"/>
<path d="M27.4881 50C23.9785 50 20.5343 49.7929 17.1665 49.1063C13.5915 48.376 10.0928 45.8038 10.3435 42.2942C10.7032 37.2152 11.5206 32.7683 12.3817 28.0598C12.9702 24.8554 13.5806 21.5311 14.0493 17.9235C14.082 17.7055 14.2782 17.5529 14.4852 17.5856C14.7032 17.6183 14.8449 17.8145 14.8231 18.0216C14.3544 21.651 13.7441 24.9753 13.1555 28.2015C12.2945 32.8881 11.4879 37.3242 11.1283 42.3487C10.8885 45.7711 14.7032 47.7983 17.319 48.3324C22.7578 49.4441 28.4363 49.2915 34.2783 49.0191C37.5917 48.8665 41.2756 48.5286 43.0631 46.4468C43.9678 45.4005 44.3165 43.9945 44.1203 42.1743C43.6844 37.9781 43.4446 33.7383 43.2157 29.6402C43.0195 26.0434 42.8124 22.3159 42.4637 18.6319C42.4419 18.4139 42.6053 18.2286 42.8124 18.2068C43.0195 18.1959 43.2157 18.3485 43.2375 18.5556C43.5863 22.2505 43.7934 25.9889 43.9896 29.5857C44.2184 33.6729 44.4473 37.9018 44.8942 42.0871C45.1013 44.1144 44.6871 45.7493 43.6517 46.9482C41.6571 49.2697 37.7879 49.6403 34.311 49.7929C32.0222 49.9128 29.7442 50 27.4881 50Z" fill="#4B6553"/>
<path d="M34.5399 12.779C34.2347 12.779 33.9404 12.7136 33.6571 12.5937C33.2647 12.4193 32.9377 12.1577 32.6543 11.918L30.5181 10.185C30.3546 10.0542 30.3219 9.8035 30.4636 9.64002C30.5944 9.47653 30.845 9.44383 31.0085 9.58552L33.1448 11.3185C33.4064 11.5256 33.6789 11.7545 33.9731 11.8853C34.7361 12.2231 35.4881 11.7981 35.9132 11.3294C36.7742 10.3703 37.341 8.87707 37.8315 7.56916C37.9623 7.23128 38.0822 6.9043 38.202 6.58822C38.6598 5.4438 38.6162 4.26668 38.0713 3.27484C37.5263 2.28301 36.5345 1.58546 35.3464 1.35657C32.4036 0.800711 27.7932 0.604524 24.3709 0.898804L24.2619 0.909703C22.3109 1.07319 20.1093 1.25848 19.597 3.23125C19.0084 5.49829 20.3381 8.17951 21.4063 10.3267L21.7006 10.9261C21.9185 11.3839 22.1801 11.6237 22.4744 11.6782C23.3136 11.809 24.5126 10.5774 25.3191 9.77081C25.5153 9.57462 25.6897 9.38933 25.8532 9.24764C26.0167 9.09505 26.2564 9.10595 26.409 9.26944C26.5616 9.42203 26.5507 9.67271 26.3981 9.8253C26.2455 9.96699 26.0712 10.1414 25.8859 10.3376C24.9158 11.3185 23.5861 12.67 22.3545 12.4738C21.7877 12.3866 21.3409 11.9834 21.003 11.2967L20.7087 10.6972C19.5861 8.4302 18.1801 5.60729 18.8449 3.05686C19.4989 0.539128 22.2128 0.310244 24.1965 0.146755L24.3164 0.135855C27.7823 -0.158425 32.4908 0.0377621 35.499 0.604524C36.9268 0.877006 38.1149 1.71625 38.7688 2.91517C39.4228 4.11409 39.4882 5.53099 38.9323 6.8934C38.8124 7.19858 38.6925 7.51466 38.5617 7.85254C38.0495 9.22584 37.4609 10.7844 36.4909 11.8635C35.935 12.452 35.2265 12.779 34.5399 12.779Z" fill="#4B6553"/>
<path d="M28.3055 12.0924C28.1965 12.0924 28.0984 12.0488 28.0221 11.9725C23.5861 7.28577 22.8995 5.68358 21.3954 1.31298C21.33 1.10589 21.439 0.887905 21.6352 0.81161C21.8313 0.746214 22.0602 0.844308 22.1365 1.05139C23.597 5.31301 24.2292 6.79531 28.36 11.1768C30.3873 9.64002 35.5862 5.26941 35.0304 1.0296C34.9977 0.81161 35.1502 0.615423 35.3682 0.593625C35.5971 0.560927 35.7824 0.713517 35.8042 0.931502C36.4255 5.66178 30.9322 10.2613 28.5453 12.0161C28.469 12.0706 28.3818 12.0924 28.3055 12.0924Z" fill="#4B6553"/>
<path d="M35.0195 4.34297C34.9868 4.34297 34.9541 4.34297 34.9214 4.33207C31.6734 3.46013 27.6516 3.30754 22.6488 3.8743C22.4199 3.8961 22.2455 3.74351 22.2128 3.52553C22.191 3.30754 22.3436 3.12225 22.5616 3.08956C27.6625 2.5119 31.7715 2.66449 35.1285 3.56912C35.3355 3.62362 35.4554 3.84161 35.4009 4.04869C35.3464 4.23398 35.1938 4.34297 35.0195 4.34297Z" fill="#4B6553"/>
<path d="M28.3709 50C28.1529 50 27.9785 49.8256 27.9785 49.6076C28.0439 44.0708 28.0221 35.1443 28.0003 26.5121C27.9894 21.106 27.9676 15.8417 27.9785 11.7C27.9785 11.482 28.1529 11.3076 28.3709 11.3076C28.5889 11.3076 28.7633 11.482 28.7633 11.7C28.7524 15.8417 28.7633 21.0951 28.7851 26.5012C28.8069 35.1334 28.8287 44.0599 28.7633 49.6076C28.7633 49.8256 28.5889 50 28.3709 50Z" fill="#4B6553"/>
<path d="M26.7796 16.2668C26.1039 16.2668 25.5589 15.7 25.5589 15.0025C25.5589 14.3049 26.1039 13.7381 26.7796 13.7381C27.4554 13.7381 28.0003 14.3049 28.0003 15.0025C28.0003 15.7 27.4554 16.2668 26.7796 16.2668ZM26.7796 14.512C26.5398 14.512 26.3436 14.73 26.3436 14.9916C26.3436 15.264 26.5398 15.4711 26.7796 15.4711C27.0194 15.4711 27.2156 15.2531 27.2156 14.9916C27.2265 14.73 27.0303 14.512 26.7796 14.512Z" fill="#4B6553"/>
<path d="M26.5071 25.5638C25.8314 25.5638 25.2864 24.9971 25.2864 24.2995C25.2864 23.602 25.8314 23.0352 26.5071 23.0352C27.1829 23.0352 27.7278 23.602 27.7278 24.2995C27.7278 24.9971 27.1829 25.5638 26.5071 25.5638ZM26.5071 23.8091C26.2673 23.8091 26.0712 24.027 26.0712 24.2886C26.0712 24.5611 26.2673 24.7682 26.5071 24.7682C26.7469 24.7682 26.9431 24.5502 26.9431 24.2886C26.9431 24.027 26.7469 23.8091 26.5071 23.8091Z" fill="#4B6553"/>
<path d="M26.5071 34.8718C25.8314 34.8718 25.2864 34.3051 25.2864 33.6075C25.2864 32.91 25.8314 32.3432 26.5071 32.3432C27.1829 32.3432 27.7278 32.91 27.7278 33.6075C27.7278 34.2942 27.1829 34.8718 26.5071 34.8718ZM26.5071 33.117C26.2673 33.117 26.0712 33.335 26.0712 33.5966C26.0712 33.8691 26.2673 34.0762 26.5071 34.0762C26.7469 34.0762 26.9431 33.8582 26.9431 33.5966C26.9431 33.335 26.7469 33.117 26.5071 33.117Z" fill="#4B6553"/>
<path d="M26.5071 44.1689C25.8314 44.1689 25.2864 43.6021 25.2864 42.9046C25.2864 42.207 25.8314 41.6403 26.5071 41.6403C27.1829 41.6403 27.7278 42.207 27.7278 42.9046C27.7278 43.6021 27.1829 44.1689 26.5071 44.1689ZM26.5071 42.4141C26.2673 42.4141 26.0712 42.6321 26.0712 42.8937C26.0712 43.1662 26.2673 43.3732 26.5071 43.3732C26.7469 43.3732 26.9431 43.1553 26.9431 42.8937C26.9431 42.6321 26.7469 42.4141 26.5071 42.4141Z" fill="#4B6553"/>
</svg>
