<svg width="24" height="24" viewBox="0 0 24 24" fill="none" xmlns="http://www.w3.org/2000/svg">
<path d="M12.001 0.316406C18.4538 0.316601 23.6846 5.54809 23.6846 12.001C23.6844 18.4537 18.4537 23.6844 12.001 23.6846C5.54809 23.6846 0.316601 18.4538 0.316406 12.001C0.316406 5.54797 5.54797 0.316406 12.001 0.316406ZM12.0361 2.9834C7.0365 2.9834 2.9834 7.0365 2.9834 12.0361C2.98363 17.0356 7.03664 21.0889 12.0361 21.0889C17.0354 21.0886 21.0886 17.0354 21.0889 12.0361C21.0889 7.03664 17.0356 2.98363 12.0361 2.9834ZM11.3516 6.60352C11.8843 6.60368 12.3164 7.03558 12.3164 7.56836V12.3164H17.0654C17.5979 12.3168 18.0301 12.7488 18.0303 13.2812C18.0301 13.8138 17.5979 14.2457 17.0654 14.2461H10.3867V7.56836C10.3868 7.03556 10.8188 6.60364 11.3516 6.60352Z" fill="white"/>
<mask id="mask0_43_3760" style="mask-type:luminance" maskUnits="userSpaceOnUse" x="0" y="0" width="24" height="24">
<path d="M12.001 0.316406C18.4538 0.316601 23.6846 5.54809 23.6846 12.001C23.6844 18.4537 18.4537 23.6844 12.001 23.6846C5.54809 23.6846 0.316601 18.4538 0.316406 12.001C0.316406 5.54797 5.54797 0.316406 12.001 0.316406ZM12.0361 2.9834C7.0365 2.9834 2.9834 7.0365 2.9834 12.0361C2.98363 17.0356 7.03664 21.0889 12.0361 21.0889C17.0354 21.0886 21.0886 17.0354 21.0889 12.0361C21.0889 7.03664 17.0356 2.98363 12.0361 2.9834ZM11.3516 6.60352C11.8843 6.60368 12.3164 7.03558 12.3164 7.56836V12.3164H17.0654C17.5979 12.3168 18.0301 12.7488 18.0303 13.2812C18.0301 13.8138 17.5979 14.2457 17.0654 14.2461H10.3867V7.56836C10.3868 7.03556 10.8188 6.60364 11.3516 6.60352Z" fill="white"/>
</mask>
<g mask="url(#mask0_43_3760)">
<rect width="66.6667" height="66.6667" fill="#CEC1B6"/>
</g>
</svg>
