<svg width="162" height="32" viewBox="0 0 162 32" fill="none" xmlns="http://www.w3.org/2000/svg">
<path d="M17.3656 22.6467C16.3665 21.8379 15.8432 20.9815 15.1771 20.2203C14.5586 19.5066 13.9877 18.7454 13.3692 18.0317C12.7031 17.2229 12.0846 16.4141 11.4185 15.6529C10.8 14.9392 10.2291 14.178 9.61057 13.4643C8.99207 12.7031 8.37357 11.8943 7.42203 10.9427C7.08899 12.37 7.23172 13.4643 7.23172 14.5586C7.18414 15.6529 7.23172 16.7947 7.23172 17.889C7.23172 18.9833 7.23172 20.1251 7.23172 21.2194C7.23172 22.2661 7.23172 23.2652 7.23172 24.3119C7.23172 25.4062 7.27929 26.548 7.23172 27.6423C7.18414 28.7366 7.42203 29.8308 7.04141 31.0203C5.75683 31.2582 4.51982 31.2106 3.28282 31.0678C2.75947 30.259 2.94978 29.4502 2.94978 28.689C2.94978 21.6952 2.9022 14.7489 2.94978 7.75507C2.94978 5.99471 2.61674 4.51982 1.37974 3.23524C0.903965 2.75947 0.523348 2.14097 0 1.37974C0.475771 1.14185 0.808811 0.999119 1.14185 0.951542C5.04317 0.761234 5.04317 0.808811 7.51718 3.75859C10.1815 6.99383 12.8934 10.2291 15.5577 13.4643C16.0811 14.0828 16.6044 14.6537 17.0326 15.1295C17.7463 15.1771 17.9841 14.7013 18.2696 14.3207C21.6476 10.3718 25.0731 6.42291 28.4035 2.37885C29.2123 1.37974 30.0687 0.808811 31.4009 0.951542C32.5427 1.09427 33.7322 0.808811 34.9692 1.18943C34.4934 2.2837 33.7797 3.04493 33.1137 3.75859C32.2097 4.75771 31.8767 5.85198 31.8767 7.18414C31.9242 14.178 31.9242 21.1242 31.8767 28.1181C31.8767 28.9745 31.8291 29.8308 31.8291 30.7348C30.4969 31.2582 29.2123 31.0203 28.0705 30.9727C27.3568 30.3542 27.5947 29.593 27.5947 28.9269C27.5947 23.8361 27.5947 18.793 27.5947 13.7022C27.5947 12.8934 27.5947 12.1322 27.5947 11.3709C26.8811 10.9903 26.6432 11.5612 26.3577 11.8943C23.8837 14.8441 21.3621 17.8414 18.8881 20.8388C18.4599 21.4097 17.9841 21.933 17.3656 22.6467Z" fill="black"/>
<path d="M55.7128 0C63.0872 0.0475771 70.6044 5.42379 71.6987 13.9401C72.2696 18.4123 71.0326 22.4088 68.1304 25.8819C62.1833 32.9709 51.2881 33.637 44.5797 27.3093C40.2502 23.2652 38.6326 18.1744 39.9648 12.4176C41.3445 6.37533 45.2458 2.61674 51.0502 0.808811C52.5727 0.33304 54.1427 0.237885 55.7128 0ZM44.2943 15.8432C44.104 21.2194 48.4335 27.1189 55.57 27.2141C61.9454 27.3093 66.9885 22.4088 67.0837 16.0811C67.1313 9.99119 62.3736 4.75771 55.8079 4.71013C48.4811 4.66256 44.1991 10.6097 44.2943 15.8432Z" fill="black"/>
<path d="M149.44 30.9727C147.679 30.9727 146.109 30.9727 144.396 30.9727C140.352 21.3621 136.499 11.7515 132.55 2.18855C132.455 1.90308 132.407 1.61762 132.312 1.18943C132.693 1.09427 132.978 0.999119 133.311 0.999119C134.5 0.999119 135.69 0.999119 136.879 0.999119C138.259 3.71101 139.211 6.51806 140.305 9.18238C141.399 11.7991 142.446 14.4634 143.54 17.1278C144.634 19.7921 145.681 22.504 146.823 25.1207C147.108 25.0731 147.204 25.0731 147.251 25.0256C147.299 24.978 147.394 24.9304 147.441 24.8828C147.537 24.7401 147.584 24.5974 147.632 24.4546C150.819 16.7947 154.007 9.08722 157.242 1.42731C157.29 1.37974 157.337 1.33216 157.48 1.14185C158.86 0.856388 160.335 0.903965 162 1.14185C161.905 1.57004 161.905 1.95066 161.762 2.2837C157.813 11.5612 153.912 20.7912 149.963 30.0687C149.868 30.3066 149.678 30.5921 149.44 30.9727Z" fill="black"/>
<path d="M102.957 1.14185C104.717 0.856388 106.192 0.856388 107.762 1.09427C110.141 5.66167 112.044 10.467 116.088 13.8449C118.99 11.5612 121.94 7.08899 124.509 1.14185C125.984 0.808811 127.507 0.808811 129.219 1.14185C129.029 1.80793 128.934 2.33128 128.744 2.80705C126.888 7.70749 124.129 11.9894 120.56 15.7956C120.227 16.1286 119.942 16.5093 119.561 16.7947C118.752 17.4608 118.467 18.2696 118.515 19.2687C118.562 22.2661 118.562 25.2634 118.515 28.3084C118.515 29.0696 118.467 29.8784 118.419 30.7348C116.944 31.1154 115.565 31.0678 114.042 30.7824C113.995 30.1639 113.9 29.6405 113.9 29.1172C113.9 25.9295 113.852 22.7894 113.9 19.6018C113.947 18.3172 113.567 17.3656 112.663 16.4617C108.856 12.5604 105.954 8.08811 103.718 3.09251C103.528 2.56916 103.29 1.99824 102.957 1.14185Z" fill="black"/>
<path d="M100.768 1.237C100.768 2.56916 100.768 3.85374 100.768 5.23348C100.293 5.32863 99.8643 5.51894 99.4361 5.51894C97.3903 5.56652 95.2969 5.51894 93.2511 5.51894C92.4899 5.51894 91.6811 5.51894 91.015 5.51894C90.3013 6.32775 90.5392 7.18414 90.5392 7.94538C90.5392 14.6537 90.5392 21.4097 90.5392 28.1181C90.5392 28.9745 90.5392 29.8308 90.5392 30.7348C89.1119 31.3533 87.7797 31.0203 86.4952 31.0203C85.8291 30.259 86.0194 29.4502 86.0194 28.689C86.0194 22.3612 86.0194 16.0335 86.0194 9.70573C86.0194 8.75419 86.0194 7.80264 86.0194 6.8511C86.0194 6.47048 85.8767 6.08987 85.7815 5.66167C82.3559 5.37621 78.978 5.75683 75.4573 5.42379C75.2194 3.99648 75.267 2.66432 75.4097 1.28458C75.7903 1.18943 76.1709 1.0467 76.5515 1.0467C80.3577 0.761234 98.8176 0.903965 100.768 1.237Z" fill="black"/>
</svg>
