<svg width="512" height="100" viewBox="0 0 512 100" fill="none" xmlns="http://www.w3.org/2000/svg">
<path d="M54.8548 71.5367C51.6988 68.9818 50.0456 66.2766 47.9416 63.872C45.9879 61.6177 44.1844 59.2131 42.2307 56.9588C40.1267 54.4039 38.1729 51.8491 36.0689 49.4445C34.1152 47.1902 32.3117 44.7856 30.358 42.5313C28.4043 40.1267 26.4505 37.5718 23.4448 34.566C22.3928 39.0747 22.8436 42.5313 22.8436 45.9879C22.6934 49.4445 22.8436 53.0514 22.8436 56.508C22.8436 59.9646 22.8436 63.5715 22.8436 67.0281C22.8436 70.3344 22.8436 73.4904 22.8436 76.7967C22.8436 80.2533 22.9939 83.8602 22.8436 87.3168C22.6934 90.7734 23.4448 94.23 22.2425 97.9872C18.1847 98.7386 14.2773 98.5884 10.3698 98.1375C8.71665 95.5826 9.3178 93.0277 9.3178 90.6231C9.3178 68.5309 9.16752 46.589 9.3178 24.4968C9.3178 18.9362 8.26579 14.2773 4.35833 10.2195C2.85546 8.71665 1.65316 6.76292 0 4.35833C1.50287 3.60689 2.55488 3.15603 3.60689 3.00574C15.9304 2.40459 15.9304 2.55488 23.7454 11.8727C32.1614 22.0922 40.7278 32.3117 49.1439 42.5313C50.7971 44.485 52.4502 46.2884 53.8028 47.7913C56.0571 47.9416 56.8085 46.4387 57.7103 45.2364C68.3807 32.7626 79.2013 20.2888 89.7214 7.51436C92.2763 4.35833 94.9815 2.55488 99.1895 3.00574C102.796 3.4566 106.554 2.55488 110.461 3.75718C108.958 7.21378 106.704 9.61838 104.6 11.8727C101.744 15.0287 100.692 18.4853 100.692 22.6934C100.843 44.7856 100.843 66.7275 100.692 88.8197C100.692 91.5249 100.542 94.23 100.542 97.0855C96.3341 98.7386 92.2763 97.9872 88.6694 97.8369C86.4151 95.8832 87.1665 93.4786 87.1665 91.3746C87.1665 75.2939 87.1665 59.3634 87.1665 43.2827C87.1665 40.7278 87.1665 38.3232 87.1665 35.9186C84.9122 34.7163 84.1608 36.5198 83.2591 37.5718C75.4441 46.8896 67.4789 56.3577 59.664 65.8258C58.3114 67.6292 56.8085 69.2824 54.8548 71.5367Z" fill="white"/>
<path d="M175.986 0C199.281 0.150287 223.026 17.1327 226.483 44.0341C228.286 58.1611 224.379 70.7852 215.211 81.7562C196.425 104.149 162.01 106.253 140.819 86.2648C127.143 73.4904 122.033 57.4097 126.241 39.2249C130.6 20.1385 142.923 8.26579 161.258 2.55488C166.067 1.05201 171.027 0.751436 175.986 0ZM139.917 50.0456C139.316 67.0281 152.992 85.6637 175.535 85.9642C195.674 86.2648 211.604 70.7852 211.905 50.7971C212.055 31.5603 197.026 15.0287 176.287 14.8784C153.143 14.7281 139.617 33.514 139.917 50.0456Z" fill="white"/>
<path d="M472.052 97.8369C466.491 97.8369 461.532 97.8369 456.121 97.8369C443.347 67.4789 431.174 37.1209 418.7 6.91321C418.399 6.01149 418.249 5.10976 417.949 3.75718C419.151 3.4566 420.053 3.15603 421.105 3.15603C424.862 3.15603 428.619 3.15603 432.376 3.15603C436.734 11.7224 439.74 20.5893 443.197 29.0054C446.653 37.2712 449.96 45.6873 453.416 54.1034C456.873 62.5195 460.179 71.0858 463.786 79.3516C464.688 79.2013 464.988 79.2013 465.139 79.051C465.289 78.9007 465.59 78.7505 465.74 78.6002C466.04 78.1493 466.191 77.6985 466.341 77.2476C476.41 53.0514 486.479 28.7048 496.699 4.50861C496.849 4.35833 497 4.20804 497.45 3.60689C501.809 2.70517 506.468 2.85546 511.728 3.60689C511.427 4.95948 511.427 6.16177 510.976 7.21378C498.502 36.5198 486.179 65.6755 473.705 94.9815C473.404 95.7329 472.803 96.6346 472.052 97.8369Z" fill="white"/>
<path d="M325.221 3.60689C330.782 2.70517 335.441 2.70517 340.4 3.4566C347.915 17.8842 353.926 33.0632 366.701 43.7336C375.868 36.5198 385.186 22.3928 393.301 3.60689C397.96 2.55488 402.77 2.55488 408.18 3.60689C407.579 5.71091 407.278 7.36407 406.677 8.86694C400.816 24.3465 392.099 37.8724 380.828 49.8953C379.776 50.9473 378.874 52.1496 377.672 53.0514C375.117 55.1554 374.215 57.7103 374.365 60.8663C374.516 70.3344 374.516 79.8025 374.365 89.4208C374.365 91.8254 374.215 94.3803 374.065 97.0855C369.406 98.2878 365.047 98.1375 360.238 97.2358C360.088 95.282 359.787 93.6289 359.787 91.9757C359.787 81.9065 359.637 71.9875 359.787 61.9183C359.938 57.8605 358.735 54.8548 355.88 51.9993C343.857 39.6758 334.689 25.5488 327.626 9.76866C327.025 8.11551 326.273 6.31206 325.221 3.60689Z" fill="white"/>
<path d="M318.308 3.90747C318.308 8.11551 318.308 12.1733 318.308 16.5316C316.805 16.8322 315.453 17.4333 314.1 17.4333C307.638 17.5836 301.025 17.4333 294.563 17.4333C292.158 17.4333 289.603 17.4333 287.499 17.4333C285.245 19.9882 285.996 22.6934 285.996 25.098C285.996 46.2884 285.996 67.6292 285.996 88.8197C285.996 91.5249 285.996 94.23 285.996 97.0855C281.488 99.0392 277.28 97.9872 273.222 97.9872C271.118 95.5826 271.719 93.0277 271.719 90.6231C271.719 70.635 271.719 50.6468 271.719 30.6586C271.719 27.6528 271.719 24.6471 271.719 21.6413C271.719 20.4391 271.268 19.2368 270.968 17.8842C260.147 16.9824 249.477 18.1847 238.355 17.1327C237.604 12.6241 237.754 8.41608 238.205 4.05775C239.407 3.75718 240.61 3.30632 241.812 3.30632C253.835 2.40459 312.146 2.85546 318.308 3.90747Z" fill="white"/>
</svg>
