<svg width="31" height="34" viewBox="0 0 31 34" fill="none" xmlns="http://www.w3.org/2000/svg">
<path d="M28.6833 13.0269L6.9168 0.617246C6.20596 0.206737 5.4002 -0.00618542 4.5815 0.000136797C3.76279 0.00645901 2.96035 0.231801 2.2558 0.65324C1.5694 1.04995 0.999129 1.62319 0.602927 2.31472C0.206725 3.00625 -0.0012931 3.79143 6.04809e-06 4.5905V29.4098C-0.0012931 30.2089 0.206725 30.9941 0.602927 31.6856C0.999129 32.3771 1.5694 32.9504 2.2558 33.3471C2.96042 33.7683 3.76284 33.9935 4.5815 33.9999C5.40016 34.0062 6.20589 33.7934 6.9168 33.3831L28.6833 20.9734C29.3853 20.5804 29.9703 20.0047 30.3777 19.306C30.7851 18.6073 31 17.8111 31 17.0002C31 16.1892 30.7851 15.393 30.3777 14.6943C29.9703 13.9956 29.3853 13.4199 28.6833 13.0269Z" fill="#8B7560"/>
</svg>
